<svg xmlns="http://www.w3.org/2000/svg" viewBox="0 0 24 16">
  <rect width="24" height="16" fill="#b31942"/>
  <g fill="#ffffff">
    <rect y="2" width="24" height="1"/>
    <rect y="4" width="24" height="1"/>
    <rect y="6" width="24" height="1"/>
    <rect y="8" width="24" height="1"/>
    <rect y="10" width="24" height="1"/>
    <rect y="12" width="24" height="1"/>
    <rect y="14" width="24" height="1"/>
  </g>
  <rect width="10" height="8" fill="#0a3161"/>
  <g fill="#ffffff">
    <circle cx="1.2" cy="1" r="0.3"/>
    <circle cx="2.8" cy="1" r="0.3"/>
    <circle cx="4.4" cy="1" r="0.3"/>
    <circle cx="6" cy="1" r="0.3"/>
    <circle cx="7.6" cy="1" r="0.3"/>
    <circle cx="2" cy="2" r="0.3"/>
    <circle cx="3.6" cy="2" r="0.3"/>
    <circle cx="5.2" cy="2" r="0.3"/>
    <circle cx="6.8" cy="2" r="0.3"/>
    <circle cx="8.4" cy="2" r="0.3"/>
    <circle cx="1.2" cy="3" r="0.3"/>
    <circle cx="2.8" cy="3" r="0.3"/>
    <circle cx="4.4" cy="3" r="0.3"/>
    <circle cx="6" cy="3" r="0.3"/>
    <circle cx="7.6" cy="3" r="0.3"/>
    <circle cx="2" cy="4" r="0.3"/>
    <circle cx="3.6" cy="4" r="0.3"/>
    <circle cx="5.2" cy="4" r="0.3"/>
    <circle cx="6.8" cy="4" r="0.3"/>
    <circle cx="8.4" cy="4" r="0.3"/>
  </g>
</svg>
